<mxfile host="Electron" agent="Mozilla/5.0 (Windows NT 10.0; Win64; x64) AppleWebKit/537.36 (KHTML, like Gecko) draw.io/24.7.8 Chrome/128.0.6613.36 Electron/32.0.1 Safari/537.36" version="24.7.8">
  <diagram name="Page-1" id="OMYiBr4JICgBX4WMRCT1">
    <mxGraphModel dx="1434" dy="836" grid="1" gridSize="10" guides="1" tooltips="1" connect="1" arrows="1" fold="1" page="1" pageScale="1" pageWidth="850" pageHeight="1100" math="0" shadow="0">
      <root>
        <mxCell id="0" />
        <mxCell id="1" parent="0" />
        <mxCell id="Y9Sgd9ZZO8p8ui2UTPGw-22" value="Processing" style="swimlane;horizontal=0;whiteSpace=wrap;html=1;fillColor=#dae8fc;strokeColor=#6c8ebf;strokeWidth=3;perimeterSpacing=0;rounded=1;swimlaneLine=0;" parent="1" vertex="1">
          <mxGeometry x="50" y="240" width="345" height="310" as="geometry" />
        </mxCell>
        <mxCell id="Y9Sgd9ZZO8p8ui2UTPGw-5" value="Count barcodes&lt;br&gt;(with or without UMIs)" style="rounded=1;whiteSpace=wrap;html=1;absoluteArcSize=1;arcSize=14;strokeWidth=2;labelBackgroundColor=none;fillColor=#dae8fc;strokeColor=none;fontStyle=1" parent="Y9Sgd9ZZO8p8ui2UTPGw-22" vertex="1">
          <mxGeometry x="42" y="15" width="290" height="60" as="geometry" />
        </mxCell>
        <mxCell id="Y9Sgd9ZZO8p8ui2UTPGw-6" value="Merge with assignment&lt;br&gt;(Counts per oligo)" style="rounded=1;whiteSpace=wrap;html=1;absoluteArcSize=1;arcSize=14;strokeWidth=2;labelBackgroundColor=none;fillColor=#dae8fc;strokeColor=none;fontStyle=1" parent="Y9Sgd9ZZO8p8ui2UTPGw-22" vertex="1">
          <mxGeometry x="42" y="91" width="290" height="60" as="geometry" />
        </mxCell>
        <mxCell id="Y9Sgd9ZZO8p8ui2UTPGw-7" value="Filter on minimal barcode support per oligo" style="rounded=1;whiteSpace=wrap;html=1;absoluteArcSize=1;arcSize=14;strokeWidth=2;labelBackgroundColor=none;fillColor=#dae8fc;strokeColor=none;fontStyle=1" parent="Y9Sgd9ZZO8p8ui2UTPGw-22" vertex="1">
          <mxGeometry x="42" y="161" width="290" height="60" as="geometry" />
        </mxCell>
        <mxCell id="Y9Sgd9ZZO8p8ui2UTPGw-8" value="Compare across replicates" style="rounded=1;whiteSpace=wrap;html=1;absoluteArcSize=1;arcSize=14;strokeWidth=2;labelBackgroundColor=none;fillColor=#dae8fc;strokeColor=none;fontStyle=1" parent="Y9Sgd9ZZO8p8ui2UTPGw-22" vertex="1">
          <mxGeometry x="42" y="235" width="290" height="60" as="geometry" />
        </mxCell>
        <mxCell id="Y9Sgd9ZZO8p8ui2UTPGw-24" value="Output" style="swimlane;horizontal=0;whiteSpace=wrap;html=1;rounded=1;shadow=0;glass=0;strokeWidth=3;fillColor=#e1d5e7;strokeColor=#9673a6;swimlaneLine=0;" parent="1" vertex="1">
          <mxGeometry x="50" y="560" width="520" height="90" as="geometry" />
        </mxCell>
        <mxCell id="Y9Sgd9ZZO8p8ui2UTPGw-12" value="Count tables" style="strokeWidth=2;html=1;shape=mxgraph.flowchart.document2;whiteSpace=wrap;size=0.25;fontFamily=Helvetica;fillColor=#e1d5e7;labelBackgroundColor=none;strokeColor=none;fontStyle=1" parent="Y9Sgd9ZZO8p8ui2UTPGw-24" vertex="1">
          <mxGeometry x="200" y="15" width="139.63" height="60" as="geometry" />
        </mxCell>
        <mxCell id="Y9Sgd9ZZO8p8ui2UTPGw-11" value="QC report" style="strokeWidth=2;html=1;shape=mxgraph.flowchart.document2;whiteSpace=wrap;size=0.25;fontFamily=Helvetica;fillColor=#e1d5e7;labelBackgroundColor=none;strokeColor=none;fontStyle=1" parent="Y9Sgd9ZZO8p8ui2UTPGw-24" vertex="1">
          <mxGeometry x="40" y="15" width="139.63" height="60" as="geometry" />
        </mxCell>
        <mxCell id="LXPdo60h-48jL2SImM8c-2" value="Normalized oligo activity" style="strokeWidth=2;html=1;shape=mxgraph.flowchart.document2;whiteSpace=wrap;size=0.25;fontFamily=Helvetica;fillColor=#e1d5e7;labelBackgroundColor=none;strokeColor=none;fontStyle=1" vertex="1" parent="Y9Sgd9ZZO8p8ui2UTPGw-24">
          <mxGeometry x="360" y="15" width="139.63" height="60" as="geometry" />
        </mxCell>
        <mxCell id="Y9Sgd9ZZO8p8ui2UTPGw-25" value="Input" style="swimlane;horizontal=0;whiteSpace=wrap;html=1;swimlaneLine=0;rounded=1;fillColor=#fff2cc;strokeColor=#d6b656;startSize=23;strokeWidth=3;" parent="1" vertex="1">
          <mxGeometry x="50" y="140" width="580" height="90" as="geometry" />
        </mxCell>
        <mxCell id="Y9Sgd9ZZO8p8ui2UTPGw-2" value="Config&lt;br&gt;(yaml/json)&lt;br&gt;&lt;div&gt;&lt;/div&gt;" style="shape=parallelogram;html=1;strokeWidth=2;perimeter=parallelogramPerimeter;whiteSpace=wrap;rounded=1;arcSize=12;size=0.23;labelBackgroundColor=none;strokeColor=none;fillColor=#fff2cc;fontStyle=1" parent="Y9Sgd9ZZO8p8ui2UTPGw-25" vertex="1">
          <mxGeometry x="30" y="15" width="145.26315789473685" height="60" as="geometry" />
        </mxCell>
        <mxCell id="Y9Sgd9ZZO8p8ui2UTPGw-3" value="Experiment table&lt;div&gt;(csv)&lt;/div&gt;" style="shape=parallelogram;html=1;strokeWidth=2;perimeter=parallelogramPerimeter;whiteSpace=wrap;rounded=1;arcSize=12;size=0.23;labelBackgroundColor=none;strokeColor=none;fillColor=#fff2cc;fontStyle=1" parent="Y9Sgd9ZZO8p8ui2UTPGw-25" vertex="1">
          <mxGeometry x="159.99842105263156" y="15" width="145.26315789473685" height="60" as="geometry" />
        </mxCell>
        <mxCell id="Y9Sgd9ZZO8p8ui2UTPGw-4" value="&lt;div&gt;Reads (+ UMI)&lt;/div&gt;&lt;div&gt;(fastq)&lt;/div&gt;" style="shape=parallelogram;html=1;strokeWidth=2;perimeter=parallelogramPerimeter;whiteSpace=wrap;rounded=1;arcSize=12;size=0.23;labelBackgroundColor=none;strokeColor=none;fillColor=#fff2cc;fontStyle=1" parent="Y9Sgd9ZZO8p8ui2UTPGw-25" vertex="1">
          <mxGeometry x="289.99684210526317" y="15" width="145.26315789473685" height="60" as="geometry" />
        </mxCell>
        <mxCell id="Y9Sgd9ZZO8p8ui2UTPGw-53" value="&lt;div&gt;Assignment file&lt;/div&gt;&lt;div&gt;(tab separated)&lt;/div&gt;" style="shape=parallelogram;html=1;strokeWidth=2;perimeter=parallelogramPerimeter;whiteSpace=wrap;rounded=1;arcSize=12;size=0.23;labelBackgroundColor=none;strokeColor=none;fillColor=#fff2cc;fontStyle=1" parent="Y9Sgd9ZZO8p8ui2UTPGw-25" vertex="1">
          <mxGeometry x="419.99684210526317" y="15" width="145.26315789473685" height="60" as="geometry" />
        </mxCell>
        <mxCell id="Y9Sgd9ZZO8p8ui2UTPGw-26" value="Experiment workflow" style="text;strokeColor=none;align=center;fillColor=none;html=1;verticalAlign=middle;whiteSpace=wrap;rounded=0;fontStyle=1;fontSize=18;" parent="1" vertex="1">
          <mxGeometry x="209.93" y="90" width="260.13" height="30" as="geometry" />
        </mxCell>
      </root>
    </mxGraphModel>
  </diagram>
</mxfile>
